<svg xmlns="http://www.w3.org/2000/svg" width="500" height="500" viewBox="0 0 500 500"><rect width="100%" height="100%" fill="#DDDDDD"/><path fill="#999999" d="M105.285 231.48v29.64h-5.53v-29.64zm12.84 29.97q-2.75 0-4.21-1.55-1.47-1.55-1.47-4.27v-11.75h-2.15q-.41 0-.7-.27-.29-.26-.29-.8v-2.01l3.39-.55 1.06-5.74q.1-.41.39-.63.29-.23.74-.23h2.62v6.62h5.62v3.61h-5.62v11.4q0 .98.48 1.53.49.56 1.33.56.47 0 .79-.11.31-.12.55-.24t.42-.24q.18-.11.37-.11.22 0 .37.11.14.12.31.34l1.51 2.46q-1.1.93-2.54 1.4-1.43.47-2.97.47m12.24-13.27h9.55q0-.98-.28-1.85-.27-.87-.83-1.53-.55-.65-1.4-1.03t-1.98-.38q-2.19 0-3.45 1.25-1.27 1.25-1.61 3.54m12.91 3.06h-13.02q.13 1.62.58 2.8t1.19 1.94q.73.77 1.75 1.15 1.01.38 2.24.38t2.13-.29q.89-.28 1.55-.63.67-.35 1.17-.64.5-.28.98-.28.63 0 .94.47l1.45 1.84q-.84.99-1.88 1.65-1.05.67-2.18 1.07-1.14.4-2.32.56-1.18.17-2.29.17-2.19 0-4.08-.73-1.88-.73-3.28-2.15-1.39-1.43-2.19-3.53t-.8-4.87q0-2.15.7-4.05.69-1.89 2-3.3 1.3-1.4 3.17-2.22 1.88-.82 4.24-.82 1.99 0 3.67.63 1.68.64 2.89 1.86t1.89 2.99q.69 1.78.69 4.05 0 1.15-.25 1.55-.24.4-.94.4m10.05 9.88h-5.07v-21.03h3.1q.98 0 1.29.92l.33 1.56q.55-.62 1.16-1.13.6-.51 1.29-.88.68-.37 1.47-.59.79-.21 1.74-.21 1.98 0 3.27 1.08 1.28 1.07 1.91 2.85.49-1.04 1.23-1.79t1.62-1.22 1.88-.7q.99-.22 2-.22 1.74 0 3.09.53t2.28 1.56q.92 1.02 1.4 2.5t.48 3.38v13.39h-5.06v-13.39q0-2.01-.88-3.02-.88-1.02-2.58-1.02-.78 0-1.45.27t-1.17.77-.79 1.26q-.28.76-.28 1.74v13.39h-5.09v-13.39q0-2.11-.85-3.07-.85-.97-2.49-.97-1.11 0-2.06.55-.95.54-1.77 1.48zm45.57-29.64v29.64h-5.54v-29.64zm10.88 29.64h-5.06v-21.03h3.1q.98 0 1.29.92l.32 1.56q.56-.62 1.16-1.13.61-.51 1.29-.88.69-.37 1.48-.59.79-.21 1.73-.21 1.99 0 3.27 1.08 1.28 1.07 1.92 2.85.49-1.04 1.23-1.79t1.62-1.22 1.87-.7q1-.22 2-.22 1.75 0 3.1.53t2.27 1.56q.93 1.02 1.41 2.5t.48 3.38v13.39h-5.06v-13.39q0-2.01-.88-3.02-.89-1.02-2.59-1.02-.78 0-1.44.27-.67.27-1.17.77t-.79 1.26-.29 1.74v13.39h-5.08v-13.39q0-2.11-.85-3.07-.85-.97-2.49-.97-1.11 0-2.06.55-.96.54-1.78 1.48zm40.39-5.43v-3.55q-2.2.1-3.69.38-1.5.28-2.4.71t-1.29 1q-.39.58-.39 1.25 0 1.33.79 1.91.79.57 2.06.57 1.56 0 2.69-.56 1.14-.56 2.23-1.71m-10.7-11.05-.9-1.62q3.62-3.32 8.73-3.32 1.84 0 3.3.6 1.45.61 2.46 1.68 1 1.08 1.53 2.58.52 1.49.52 3.28v13.28h-2.3q-.71 0-1.1-.22-.39-.21-.62-.87l-.45-1.51q-.8.71-1.56 1.26-.76.54-1.58.91t-1.75.56q-.93.2-2.06.2-1.33 0-2.46-.36t-1.95-1.08q-.82-.71-1.27-1.78t-.45-2.48q0-.8.27-1.59.26-.79.87-1.51.6-.71 1.57-1.35.96-.64 2.36-1.11 1.41-.47 3.27-.77 1.87-.29 4.27-.35v-1.23q0-2.12-.9-3.13-.91-1.02-2.61-1.02-1.23 0-2.04.29t-1.42.65q-.62.36-1.12.64-.5.29-1.12.29-.53 0-.9-.28-.37-.27-.59-.64m28.08 5.45q.95 0 1.64-.26.7-.25 1.16-.7t.7-1.09q.23-.63.23-1.39 0-1.56-.93-2.47-.93-.92-2.8-.92-1.86 0-2.8.92-.93.91-.93 2.47 0 .73.24 1.37.23.64.69 1.1.47.46 1.17.71.71.26 1.63.26m5.72 11.97q0-.61-.37-1t-1-.61q-.64-.21-1.49-.31-.85-.11-1.8-.16-.96-.05-1.97-.09t-1.98-.16q-.84.47-1.36 1.1-.52.64-.52 1.48 0 .55.27 1.03.28.49.88.83.61.35 1.57.55.97.19 2.36.19 1.41 0 2.44-.21 1.02-.22 1.69-.6t.97-.9q.31-.52.31-1.14m-1-21.26h6.04v1.89q0 .9-1.08 1.11l-1.89.35q.43 1.08.43 2.37 0 1.56-.62 2.82-.63 1.26-1.73 2.15-1.11.88-2.62 1.36t-3.25.48q-.61 0-1.19-.06-.57-.06-1.12-.17-.99.6-.99 1.34 0 .63.59.93.58.3 1.54.42.97.12 2.2.15t2.52.14q1.29.1 2.52.36 1.23.25 2.19.81.97.55 1.55 1.5.59.96.59 2.45 0 1.4-.69 2.71t-1.99 2.34q-1.3 1.02-3.2 1.65-1.89.62-4.31.62-2.38 0-4.14-.46-1.77-.46-2.94-1.23-1.16-.77-1.74-1.77-.57-1.01-.57-2.1 0-1.47.89-2.47.89-.99 2.45-1.58-.84-.43-1.33-1.15t-.49-1.89q0-.47.17-.97t.51-1q.34-.49.85-.93.52-.44 1.21-.79-1.6-.86-2.51-2.29-.91-1.44-.91-3.37 0-1.55.62-2.81.63-1.27 1.75-2.16 1.11-.89 2.64-1.36t3.33-.47q1.36 0 2.54.27 1.19.28 2.18.81m13.24 7.38h9.55q0-.98-.27-1.85-.28-.87-.83-1.53-.56-.65-1.41-1.03t-1.98-.38q-2.19 0-3.45 1.25t-1.61 3.54m12.92 3.06h-13.02q.12 1.62.57 2.8t1.19 1.94q.74.77 1.75 1.15 1.02.38 2.25.38t2.12-.29q.89-.28 1.56-.63.66-.35 1.17-.64.5-.28.97-.28.64 0 .94.47l1.46 1.84q-.84.99-1.89 1.65-1.04.67-2.18 1.07t-2.32.56q-1.18.17-2.28.17-2.2 0-4.08-.73-1.89-.73-3.28-2.15-1.4-1.43-2.2-3.53t-.8-4.87q0-2.15.7-4.05.7-1.89 2-3.3 1.3-1.4 3.18-2.22 1.87-.82 4.23-.82 1.99 0 3.67.63 1.68.64 2.89 1.86t1.9 2.99q.68 1.78.68 4.05 0 1.15-.24 1.55-.25.4-.94.4m35.19-19.76h5.54v29.64h-5.54v-12.96h-13.92v12.96h-5.53v-29.64h5.53v12.75h13.92zm15.34 16.7h9.55q0-.98-.28-1.85-.27-.87-.83-1.53-.55-.65-1.4-1.03t-1.98-.38q-2.19 0-3.45 1.25t-1.61 3.54m12.91 3.06h-13.01q.12 1.62.57 2.8t1.19 1.94q.74.77 1.75 1.15 1.02.38 2.25.38t2.12-.29q.89-.28 1.56-.63.66-.35 1.16-.64.51-.28.98-.28.63 0 .94.47l1.46 1.84q-.84.99-1.89 1.65-1.05.67-2.18 1.07-1.14.4-2.32.56-1.18.17-2.29.17-2.19 0-4.07-.73-1.89-.73-3.28-2.15-1.4-1.43-2.2-3.53t-.8-4.87q0-2.15.7-4.05.7-1.89 2-3.3 1.3-1.4 3.18-2.22 1.87-.82 4.23-.82 1.99 0 3.67.63 1.68.64 2.89 1.86t1.9 2.99q.68 1.78.68 4.05 0 1.15-.24 1.55-.25.4-.95.4m9.45-9.88.31 2.38q.98-1.89 2.34-2.97 1.35-1.07 3.2-1.07 1.45 0 2.33.63l-.33 3.8q-.1.36-.29.52-.2.15-.53.15-.3 0-.91-.1-.6-.1-1.18-.1-.84 0-1.49.24-.66.25-1.18.71t-.92 1.12q-.4.65-.75 1.49v12.96h-5.07v-21.03h2.98q.78 0 1.08.27.31.28.41 1m14.82 6.82h9.56q0-.98-.28-1.85t-.83-1.53q-.55-.65-1.4-1.03t-1.98-.38q-2.2 0-3.46 1.25t-1.61 3.54m12.92 3.06h-13.02q.13 1.62.58 2.8t1.19 1.94q.73.77 1.75 1.15 1.01.38 2.24.38t2.12-.29q.9-.28 1.56-.63.67-.35 1.17-.64.5-.28.97-.28.64 0 .95.47l1.45 1.84q-.84.99-1.88 1.65-1.05.67-2.19 1.07-1.13.4-2.31.56-1.18.17-2.29.17-2.19 0-4.08-.73-1.88-.73-3.28-2.15-1.39-1.43-2.19-3.53t-.8-4.87q0-2.15.7-4.05.69-1.89 2-3.3 1.3-1.4 3.17-2.22 1.88-.82 4.24-.82 1.98 0 3.67.63 1.68.64 2.89 1.86t1.89 2.99q.69 1.78.69 4.05 0 1.15-.25 1.55-.24.4-.94.4"/></svg>